<?xml version="1.0" standalone="no"?>
<!DOCTYPE svg PUBLIC "-//W3C//DTD SVG 20010904//EN"
 "http://www.w3.org/TR/2001/REC-SVG-20010904/DTD/svg10.dtd">
<svg version="1.0" xmlns="http://www.w3.org/2000/svg"
 width="512.000000pt" height="512.000000pt" viewBox="0 0 512.000000 512.000000"
 preserveAspectRatio="xMidYMid meet">
<metadata>
Created by potrace 1.16, written by Peter Selinger 2001-2019
</metadata>
<g transform="translate(0.000000,512.000000) scale(0.100000,-0.100000)"
fill="#000000" stroke="none">
<path d="M359 5101 c-90 -29 -156 -71 -220 -138 -64 -69 -98 -127 -123 -212
-14 -50 -16 -255 -16 -2191 0 -2338 -4 -2173 56 -2292 35 -69 134 -170 201
-205 128 -68 -56 -63 2303 -63 2359 0 2175 -5 2303 63 67 35 166 136 201 205
60 119 56 -46 56 2292 0 2338 4 2173 -56 2292 -35 69 -134 170 -201 205 -128
68 57 63 -2307 62 -2023 0 -2144 -1 -2197 -18z m2235 -1472 c269 -23 470 -87
641 -202 252 -170 385 -405 416 -735 20 -217 -14 -410 -106 -597 -162 -332
-477 -548 -879 -604 -48 -7 -288 -11 -626 -11 l-549 0 -5 43 c-4 23 -7 82 -9
132 l-2 89 105 24 c57 12 107 25 110 28 25 26 25 1473 0 1514 -4 6 -47 20 -96
31 -140 31 -127 17 -119 127 3 54 8 114 11 135 l6 37 491 0 c271 0 546 -5 611
-11z"/>
<path d="M2218 3314 c-13 -4 -18 -24 -23 -98 -9 -112 -3 -1372 6 -1381 29 -28
365 -35 479 -10 265 60 402 236 430 550 12 135 -1 315 -30 433 -61 239 -212
406 -435 479 -71 23 -99 26 -245 29 -91 1 -172 1 -182 -2z"/>
</g>
</svg>
